<svg xmlns="http://www.w3.org/2000/svg" xmlns:xlink="http://www.w3.org/1999/xlink" width="400" zoomAndPan="magnify" viewBox="0 0 300 149.999998" height="200" preserveAspectRatio="xMidYMid meet" version="1.0"><defs><g/><clipPath id="81fef2fd28"><path d="M 234 50 L 273 50 L 273 85 L 234 85 Z M 234 50 " clip-rule="nonzero"/></clipPath><clipPath id="5abeb65b6d"><path d="M 248.078125 42.0625 L 280.710938 67.289062 L 267.410156 84.496094 L 234.773438 59.269531 Z M 248.078125 42.0625 " clip-rule="nonzero"/></clipPath><clipPath id="7965ec41ff"><path d="M 248.078125 42.0625 L 280.710938 67.289062 L 255.941406 99.332031 L 223.304688 74.101562 Z M 248.078125 42.0625 " clip-rule="nonzero"/></clipPath><clipPath id="b1594bb3af"><path d="M 227.605469 51.800781 L 268.855469 51.800781 L 268.855469 95.300781 L 227.605469 95.300781 Z M 227.605469 51.800781 " clip-rule="nonzero"/></clipPath><clipPath id="c50165a9b0"><rect x="0" width="198" y="0" height="112"/></clipPath></defs><rect x="-30" width="360" fill="#ffffff" y="-15" height="179.999997" fill-opacity="1"/><rect x="-30" width="360" fill="#ffffff" y="-15" height="179.999997" fill-opacity="1"/><g clip-path="url(#81fef2fd28)"><g clip-path="url(#5abeb65b6d)"><g clip-path="url(#7965ec41ff)"><path fill="#fecd0e" d="M 262.597656 62.117188 C 257.921875 56.214844 249.34375 55.222656 243.445312 59.898438 C 237.542969 64.574219 236.546875 73.148438 241.226562 79.050781 C 245.902344 84.953125 254.476562 85.945312 260.378906 81.269531 C 266.28125 76.59375 267.273438 68.019531 262.597656 62.117188 Z M 260.832031 86.664062 L 260.984375 88.875 C 259.695312 89.519531 258.351562 90.011719 256.988281 90.359375 L 255.660156 88.585938 C 253.976562 88.9375 252.214844 89.058594 250.414062 88.910156 C 250.167969 88.890625 249.921875 88.863281 249.679688 88.832031 L 248.503906 90.714844 C 247.101562 90.476562 245.722656 90.089844 244.394531 89.566406 L 244.363281 87.351562 C 242.511719 86.519531 240.835938 85.390625 239.378906 84.035156 L 237.320312 84.867188 C 236.828125 84.363281 236.355469 83.828125 235.90625 83.265625 C 235.460938 82.699219 235.050781 82.117188 234.671875 81.523438 L 235.949219 79.710938 C 234.960938 77.988281 234.25 76.097656 233.863281 74.097656 L 231.714844 73.5625 C 231.507812 72.148438 231.445312 70.71875 231.535156 69.300781 L 233.636719 68.582031 C 233.859375 66.535156 234.410156 64.59375 235.242188 62.816406 L 233.820312 61.121094 C 234.472656 59.871094 235.257812 58.679688 236.179688 57.566406 L 238.300781 58.222656 C 239.652344 56.742188 241.234375 55.480469 242.992188 54.503906 L 242.835938 52.292969 C 244.128906 51.648438 245.46875 51.15625 246.835938 50.808594 L 248.164062 52.582031 C 249.847656 52.230469 251.605469 52.109375 253.40625 52.257812 C 253.65625 52.277344 253.898438 52.304688 254.144531 52.335938 L 255.320312 50.453125 C 256.722656 50.691406 258.097656 51.078125 259.429688 51.601562 L 259.460938 53.816406 C 261.308594 54.648438 262.988281 55.777344 264.441406 57.132812 L 266.503906 56.300781 C 266.996094 56.804688 267.464844 57.339844 267.914062 57.90625 C 268.363281 58.46875 268.773438 59.050781 269.152344 59.644531 L 267.875 61.457031 C 268.859375 63.179688 269.570312 65.070312 269.960938 67.070312 L 272.109375 67.605469 C 272.316406 69.019531 272.375 70.449219 272.285156 71.867188 L 270.183594 72.585938 C 269.960938 74.632812 269.410156 76.574219 268.582031 78.351562 L 270.003906 80.046875 C 269.351562 81.296875 268.5625 82.488281 267.644531 83.601562 L 265.523438 82.945312 C 264.171875 84.425781 262.589844 85.6875 260.832031 86.664062 " fill-opacity="1" fill-rule="nonzero"/></g></g></g><path fill="#fecd0e" d="M 246.363281 62.675781 C 246.339844 63.167969 246.125 63.621094 245.765625 63.953125 L 245.117188 64.542969 L 243.601562 65.929688 C 242.828125 65.386719 242.222656 64.960938 241.796875 64.667969 C 241.367188 64.371094 240.878906 64.117188 240.347656 63.914062 L 242.292969 62.136719 L 243.289062 61.222656 L 243.300781 61.214844 C 243.664062 60.882812 244.132812 60.714844 244.617188 60.738281 C 245.105469 60.765625 245.558594 60.980469 245.890625 61.34375 C 246.21875 61.710938 246.386719 62.183594 246.363281 62.675781 Z M 246.363281 62.675781 " fill-opacity="1" fill-rule="nonzero"/><path fill="#fecd0e" d="M 249.886719 67.121094 C 249.863281 67.617188 249.648438 68.070312 249.289062 68.402344 L 249.039062 68.628906 L 247.441406 70.089844 C 247.28125 68.847656 246.457031 67.992188 246.351562 67.890625 L 246.292969 67.84375 C 246.292969 67.84375 245.863281 67.535156 245.253906 67.101562 L 246.546875 65.917969 L 246.820312 65.664062 C 247.1875 65.332031 247.65625 65.164062 248.144531 65.1875 C 248.632812 65.210938 249.085938 65.425781 249.414062 65.792969 C 249.742188 66.15625 249.910156 66.628906 249.886719 67.121094 Z M 249.886719 67.121094 " fill-opacity="1" fill-rule="nonzero"/><path fill="#fecd0e" d="M 253.324219 71.648438 C 253.300781 72.144531 253.089844 72.597656 252.722656 72.929688 L 252.386719 73.238281 L 248.808594 76.511719 C 248.714844 76.59375 248.613281 76.667969 248.507812 76.730469 C 247.765625 77.171875 246.804688 77.023438 246.222656 76.378906 C 245.628906 75.71875 245.585938 74.730469 246.121094 74.019531 C 246.183594 73.933594 246.257812 73.851562 246.347656 73.769531 L 250.261719 70.191406 L 250.28125 70.175781 L 250.289062 70.164062 C 250.648438 69.851562 251.105469 69.691406 251.582031 69.714844 C 252.070312 69.738281 252.523438 69.953125 252.851562 70.320312 C 253.179688 70.683594 253.347656 71.15625 253.324219 71.648438 Z M 253.324219 71.648438 " fill-opacity="1" fill-rule="nonzero"/><path fill="#dddddd" d="M 244.726562 65.890625 L 244.613281 65.996094 L 244.617188 65.996094 Z M 244.726562 65.890625 " fill-opacity="1" fill-rule="nonzero"/><path fill="#fecd0e" d="M 256.761719 76.175781 C 256.738281 76.671875 256.523438 77.125 256.164062 77.457031 L 254.914062 78.597656 L 252.753906 80.570312 L 252.738281 80.585938 C 252.589844 80.71875 252.429688 80.820312 252.253906 80.894531 C 251.535156 81.210938 250.695312 81.03125 250.164062 80.441406 C 249.621094 79.839844 249.53125 78.964844 249.941406 78.265625 C 250.03125 78.105469 250.148438 77.964844 250.289062 77.835938 L 253.382812 75.007812 L 253.695312 74.71875 C 254.035156 74.410156 254.472656 74.242188 254.929688 74.242188 C 255.445312 74.242188 255.941406 74.460938 256.289062 74.847656 C 256.617188 75.210938 256.785156 75.683594 256.761719 76.175781 Z M 256.761719 76.175781 " fill-opacity="1" fill-rule="nonzero"/><path fill="#dddddd" d="M 267.507812 85.183594 L 263.3125 82.847656 L 262.558594 82.425781 L 262.335938 82.539062 C 262.296875 82.558594 258.210938 84.664062 259 88.59375 L 259.039062 88.792969 L 263.164062 91.523438 C 262.675781 91.707031 261.960938 91.925781 261.128906 92.023438 C 258.992188 92.261719 257.136719 91.605469 255.613281 90.074219 C 254.269531 88.71875 254.304688 87.585938 254.355469 86.140625 C 254.382812 85.242188 254.414062 84.3125 254.121094 83.226562 C 254.015625 82.832031 253.875 82.457031 253.695312 82.074219 L 253.667969 82.011719 L 253.410156 81.710938 C 253.339844 81.632812 253.269531 81.554688 253.199219 81.472656 L 253.375 81.308594 C 253.390625 81.296875 253.402344 81.285156 253.414062 81.273438 L 255.824219 79.070312 L 256.808594 78.171875 C 256.957031 78.035156 257.085938 77.886719 257.203125 77.726562 C 257.492188 77.964844 257.769531 78.1875 258.019531 78.386719 L 258.117188 78.464844 L 258.246094 78.484375 C 259.617188 78.695312 260.785156 78.851562 262.261719 79.046875 L 263.605469 79.226562 C 264.804688 79.390625 266.074219 80.296875 266.84375 81.535156 C 267.535156 82.652344 267.765625 83.9375 267.507812 85.183594 Z M 267.507812 85.183594 " fill-opacity="1" fill-rule="nonzero"/><path fill="#dddddd" d="M 241.03125 61.984375 L 240.71875 62.265625 L 238.222656 64.550781 C 238.1875 64.511719 238.15625 64.476562 238.125 64.441406 L 237.789062 64.0625 L 237.550781 64.085938 C 237.472656 64.089844 237.394531 64.089844 237.320312 64.074219 C 235.765625 63.824219 234.558594 63.664062 233.160156 63.476562 C 232.808594 63.433594 232.4375 63.382812 232.039062 63.328125 C 231.070312 63.199219 230.042969 62.464844 229.421875 61.457031 C 228.882812 60.589844 228.691406 59.59375 228.863281 58.617188 L 232.886719 60.859375 L 233.117188 60.746094 C 233.148438 60.730469 235.96875 59.265625 236 56.535156 C 236.003906 56.257812 235.976562 55.964844 235.914062 55.65625 L 235.875 55.457031 L 232.578125 53.273438 C 232.984375 53.132812 233.5 52.988281 234.085938 52.925781 C 235.820312 52.726562 237.328125 53.261719 238.570312 54.511719 C 239.65625 55.605469 239.628906 56.523438 239.589844 57.691406 C 239.5625 58.492188 239.53125 59.398438 239.878906 60.441406 L 239.902344 60.519531 L 239.949219 60.582031 C 240.300781 61.054688 240.664062 61.523438 241.03125 61.984375 Z M 241.03125 61.984375 " fill-opacity="1" fill-rule="nonzero"/><path fill="#fecd0e" d="M 253.117188 83.222656 C 251.761719 84.667969 249.519531 87.238281 248.996094 88.949219 C 248.421875 90.828125 247.636719 93.453125 247.382812 94.296875 C 244.863281 94.175781 241.507812 93.898438 238.859375 93.484375 C 237.121094 93.214844 235.691406 92.886719 235.003906 92.507812 L 237.21875 86.070312 L 232.390625 73.777344 L 232.363281 73.726562 L 232.351562 73.699219 C 232.316406 73.636719 231.976562 73.003906 232.113281 72.199219 C 232.207031 71.632812 232.515625 71.097656 233.023438 70.609375 L 233.03125 70.601562 C 233.039062 70.59375 233.050781 70.585938 233.058594 70.574219 L 239.535156 64.65625 C 240.003906 64.796875 240.644531 65.046875 241.253906 65.46875 C 241.695312 65.769531 242.347656 66.226562 243.363281 66.945312 C 243.652344 67.148438 243.941406 67.351562 244.210938 67.542969 C 244.902344 68.035156 245.472656 68.441406 245.664062 68.578125 L 245.703125 68.605469 C 245.863281 68.777344 246.765625 69.804688 246.4375 71.0625 L 246.417969 71.125 C 246.390625 71.226562 246.347656 71.34375 246.292969 71.464844 C 246.277344 71.503906 246.257812 71.542969 246.238281 71.582031 C 245.960938 72.140625 245.566406 72.585938 245.089844 72.871094 C 244.414062 73.28125 243.726562 73.277344 243.375 73.101562 C 242.707031 72.761719 240.789062 71.570312 239.996094 71.074219 L 239.195312 70.574219 L 237.132812 72.648438 L 241.171875 80.226562 L 242.015625 79.769531 L 240.378906 76.691406 C 243.152344 76.949219 245.109375 79.019531 246.277344 80.757812 C 247.085938 81.957031 247.492188 82.972656 247.496094 82.984375 L 247.585938 83.203125 L 248.476562 82.84375 L 248.390625 82.625 C 248.34375 82.511719 247.917969 81.472656 247.070312 80.214844 C 245.6875 78.160156 243.320312 75.722656 239.847656 75.699219 L 238.316406 72.824219 L 239.332031 71.800781 L 239.484375 71.898438 C 240.292969 72.402344 242.242188 73.613281 242.945312 73.964844 C 243.523438 74.257812 244.300781 74.253906 245.039062 73.96875 C 244.582031 74.980469 244.753906 76.1875 245.511719 77.027344 C 246.039062 77.613281 246.796875 77.949219 247.585938 77.949219 C 247.945312 77.949219 248.304688 77.878906 248.640625 77.742188 C 248.746094 77.863281 248.847656 77.980469 248.953125 78.097656 C 248.519531 79.109375 248.710938 80.269531 249.453125 81.09375 C 249.984375 81.679688 250.738281 82.015625 251.523438 82.015625 C 251.785156 82.015625 252.046875 81.980469 252.300781 81.90625 C 252.433594 82.058594 252.5625 82.207031 252.6875 82.351562 L 252.855469 82.546875 C 252.957031 82.765625 253.042969 82.992188 253.117188 83.222656 Z M 253.117188 83.222656 " fill-opacity="1" fill-rule="nonzero"/><g clip-path="url(#b1594bb3af)"><path fill="#000000" d="M 267.660156 81.019531 C 266.730469 79.519531 265.222656 78.464844 263.730469 78.265625 L 263.226562 78.195312 C 262.949219 78.160156 262.6875 78.125 262.429688 78.089844 L 262.308594 78.074219 C 260.910156 77.886719 259.800781 77.738281 258.519531 77.542969 C 258.257812 77.335938 257.972656 77.105469 257.625 76.820312 C 257.679688 76.625 257.710938 76.425781 257.722656 76.222656 C 257.757812 75.46875 257.5 74.75 257 74.191406 C 256.167969 73.269531 254.851562 73.011719 253.746094 73.535156 L 253.734375 73.527344 C 253.691406 73.488281 253.644531 73.445312 253.597656 73.40625 C 254.011719 72.929688 254.253906 72.332031 254.285156 71.691406 C 254.320312 70.941406 254.0625 70.222656 253.5625 69.664062 C 253.058594 69.105469 252.371094 68.78125 251.628906 68.746094 C 250.882812 68.707031 250.167969 68.96875 249.613281 69.472656 L 249.453125 69.617188 C 249.441406 69.605469 249.429688 69.59375 249.417969 69.582031 L 249.933594 69.113281 C 250.484375 68.609375 250.808594 67.917969 250.847656 67.164062 C 250.882812 66.414062 250.628906 65.695312 250.125 65.136719 C 249.625 64.582031 248.9375 64.253906 248.191406 64.21875 C 247.445312 64.179688 246.730469 64.4375 246.175781 64.945312 L 245.460938 65.601562 C 245.449219 65.589844 245.4375 65.578125 245.425781 65.566406 L 246.410156 64.664062 L 246.6875 64.410156 L 246.671875 64.394531 C 247.566406 63.324219 247.550781 61.742188 246.601562 60.6875 C 246.097656 60.132812 245.410156 59.804688 244.667969 59.769531 C 244.039062 59.738281 243.429688 59.917969 242.921875 60.28125 L 242.910156 60.265625 L 242.664062 60.484375 C 242.660156 60.488281 242.65625 60.496094 242.648438 60.5 L 241.742188 61.328125 C 241.398438 60.894531 241.070312 60.46875 240.769531 60.0625 C 240.5 59.210938 240.527344 58.453125 240.550781 57.71875 C 240.589844 56.484375 240.632812 55.210938 239.25 53.820312 C 237.429688 51.988281 235.367188 51.796875 233.960938 51.960938 C 232.453125 52.132812 231.375 52.734375 231.332031 52.757812 L 230.640625 53.148438 L 235.003906 56.035156 C 235.300781 58.082031 233.597656 59.335938 232.898438 59.757812 L 228.28125 57.183594 L 228.097656 57.734375 C 227.625 59.167969 227.804688 60.671875 228.605469 61.964844 C 229.386719 63.226562 230.652344 64.113281 231.910156 64.285156 C 232.308594 64.335938 232.679688 64.386719 233.035156 64.433594 L 233.144531 64.449219 C 234.574219 64.640625 235.699219 64.789062 237.171875 65.027344 C 237.242188 65.039062 237.3125 65.046875 237.378906 65.050781 L 237.40625 65.082031 C 237.441406 65.117188 237.476562 65.15625 237.511719 65.195312 L 232.363281 69.902344 C 231.699219 70.539062 231.296875 71.253906 231.167969 72.03125 C 230.984375 73.121094 231.402344 73.96875 231.507812 74.164062 L 236.191406 86.089844 L 233.871094 92.84375 L 234.117188 93.054688 C 236.058594 94.773438 247.238281 95.257812 247.714844 95.277344 L 248.085938 95.292969 L 248.195312 94.925781 C 248.300781 94.574219 249.242188 91.425781 249.914062 89.226562 C 250.34375 87.832031 252.269531 85.578125 253.363281 84.375 C 253.429688 84.976562 253.410156 85.550781 253.394531 86.113281 C 253.347656 87.582031 253.296875 89.101562 254.9375 90.753906 C 256.417969 92.242188 258.277344 93.03125 260.316406 93.03125 C 260.625 93.03125 260.941406 93.011719 261.257812 92.976562 C 263.007812 92.773438 264.261719 92.101562 264.402344 92.023438 L 265.089844 91.636719 L 259.910156 88.203125 C 259.5 85.554688 261.832031 83.949219 262.550781 83.523438 L 268.082031 86.605469 L 268.265625 86.054688 C 268.828125 84.351562 268.613281 82.5625 267.660156 81.019531 Z M 253.695312 74.714844 C 254.035156 74.40625 254.472656 74.238281 254.929688 74.238281 C 255.445312 74.238281 255.941406 74.457031 256.289062 74.84375 C 256.617188 75.207031 256.785156 75.679688 256.761719 76.171875 C 256.738281 76.667969 256.523438 77.121094 256.160156 77.453125 L 252.753906 80.566406 L 252.738281 80.582031 C 252.589844 80.714844 252.429688 80.816406 252.253906 80.890625 C 251.53125 81.207031 250.695312 81.027344 250.164062 80.441406 C 249.621094 79.835938 249.53125 78.960938 249.941406 78.261719 C 250.03125 78.101562 250.148438 77.960938 250.289062 77.832031 Z M 250.257812 70.1875 L 250.289062 70.160156 C 250.648438 69.847656 251.105469 69.6875 251.582031 69.710938 C 252.070312 69.734375 252.523438 69.949219 252.851562 70.316406 C 253.179688 70.679688 253.347656 71.152344 253.324219 71.644531 C 253.300781 72.140625 253.085938 72.59375 252.722656 72.925781 L 248.804688 76.507812 C 248.714844 76.589844 248.613281 76.664062 248.507812 76.726562 C 247.765625 77.167969 246.804688 77.019531 246.222656 76.375 C 245.628906 75.714844 245.585938 74.726562 246.121094 74.015625 C 246.183594 73.929688 246.257812 73.84375 246.347656 73.765625 Z M 246.820312 65.660156 C 247.1875 65.328125 247.65625 65.160156 248.144531 65.183594 C 248.632812 65.207031 249.085938 65.421875 249.414062 65.789062 C 249.742188 66.152344 249.910156 66.625 249.886719 67.117188 C 249.863281 67.613281 249.648438 68.066406 249.285156 68.398438 L 247.441406 70.082031 C 247.28125 68.84375 246.453125 67.988281 246.347656 67.886719 L 246.292969 67.839844 C 246.292969 67.839844 245.863281 67.53125 245.253906 67.097656 Z M 243.289062 61.21875 L 243.300781 61.210938 C 243.664062 60.878906 244.132812 60.710938 244.617188 60.734375 C 245.105469 60.757812 245.558594 60.976562 245.886719 61.339844 C 246.21875 61.707031 246.386719 62.179688 246.363281 62.671875 C 246.335938 63.164062 246.125 63.617188 245.761719 63.949219 L 243.601562 65.925781 C 242.828125 65.382812 242.222656 64.957031 241.796875 64.664062 C 241.363281 64.367188 240.878906 64.113281 240.347656 63.910156 Z M 244.617188 65.992188 L 244.613281 65.992188 L 244.726562 65.886719 Z M 237.320312 64.070312 C 235.765625 63.820312 234.558594 63.660156 233.160156 63.472656 C 232.808594 63.429688 232.4375 63.378906 232.039062 63.324219 C 231.070312 63.195312 230.042969 62.460938 229.417969 61.453125 C 228.882812 60.585938 228.6875 59.589844 228.863281 58.613281 L 232.886719 60.859375 L 233.117188 60.742188 C 233.148438 60.726562 236.578125 58.945312 235.914062 55.652344 L 235.875 55.453125 L 232.578125 53.269531 C 232.980469 53.128906 233.5 52.984375 234.085938 52.921875 C 235.820312 52.722656 237.328125 53.257812 238.570312 54.507812 C 239.65625 55.597656 239.628906 56.519531 239.589844 57.6875 C 239.5625 58.488281 239.53125 59.394531 239.878906 60.4375 L 239.902344 60.515625 L 239.949219 60.578125 C 240.300781 61.050781 240.664062 61.519531 241.03125 61.980469 L 238.222656 64.546875 C 238.1875 64.511719 238.15625 64.472656 238.121094 64.4375 L 237.789062 64.058594 L 237.550781 64.082031 C 237.472656 64.085938 237.394531 64.085938 237.320312 64.070312 Z M 248.996094 88.941406 C 248.421875 90.820312 247.632812 93.449219 247.382812 94.292969 C 243.214844 94.089844 236.742188 93.460938 235.003906 92.503906 L 237.214844 86.066406 L 232.390625 73.773438 L 232.351562 73.695312 C 232.316406 73.632812 231.976562 73 232.113281 72.195312 C 232.207031 71.628906 232.515625 71.09375 233.023438 70.605469 L 233.03125 70.597656 C 233.039062 70.589844 233.050781 70.582031 233.058594 70.570312 L 239.535156 64.652344 C 240.003906 64.792969 240.644531 65.042969 241.253906 65.460938 C 241.695312 65.765625 242.347656 66.222656 243.363281 66.941406 C 243.652344 67.144531 243.941406 67.347656 244.210938 67.539062 C 244.902344 68.03125 245.46875 68.4375 245.664062 68.574219 L 245.703125 68.601562 C 245.863281 68.773438 246.765625 69.800781 246.4375 71.058594 L 246.417969 71.121094 C 246.390625 71.222656 246.347656 71.339844 246.292969 71.460938 C 246.015625 72.074219 245.601562 72.5625 245.089844 72.867188 C 244.414062 73.277344 243.726562 73.273438 243.375 73.097656 C 242.707031 72.757812 240.789062 71.566406 239.992188 71.070312 L 239.195312 70.570312 L 237.132812 72.644531 L 241.167969 80.222656 L 242.015625 79.765625 L 240.378906 76.6875 C 243.152344 76.945312 245.109375 79.015625 246.277344 80.753906 C 247.085938 81.953125 247.492188 82.96875 247.496094 82.980469 L 247.585938 83.199219 L 248.476562 82.839844 L 248.390625 82.621094 C 248.34375 82.507812 247.917969 81.46875 247.070312 80.210938 C 245.6875 78.15625 243.320312 75.71875 239.847656 75.695312 L 238.316406 72.820312 L 239.335938 71.796875 L 239.484375 71.890625 C 240.292969 72.398438 242.242188 73.609375 242.945312 73.960938 C 243.523438 74.253906 244.300781 74.25 245.039062 73.964844 C 244.578125 74.972656 244.753906 76.183594 245.511719 77.023438 C 246.039062 77.609375 246.796875 77.945312 247.585938 77.945312 C 247.945312 77.945312 248.304688 77.875 248.636719 77.738281 C 248.742188 77.859375 248.847656 77.976562 248.953125 78.09375 C 248.519531 79.105469 248.710938 80.265625 249.453125 81.089844 C 249.984375 81.675781 250.738281 82.011719 251.523438 82.011719 C 251.785156 82.011719 252.046875 81.976562 252.296875 81.902344 C 252.433594 82.054688 252.5625 82.203125 252.6875 82.347656 L 252.855469 82.539062 C 252.957031 82.761719 253.042969 82.988281 253.113281 83.21875 C 251.761719 84.664062 249.519531 87.234375 248.996094 88.941406 Z M 267.507812 85.179688 L 262.558594 82.421875 L 262.335938 82.535156 C 262.296875 82.554688 258.207031 84.660156 259 88.589844 L 259.039062 88.789062 L 263.164062 91.519531 C 262.675781 91.703125 261.957031 91.925781 261.128906 92.019531 C 258.992188 92.257812 257.136719 91.601562 255.613281 90.070312 C 254.265625 88.714844 254.304688 87.582031 254.355469 86.136719 C 254.382812 85.238281 254.410156 84.308594 254.121094 83.222656 C 254.011719 82.828125 253.875 82.453125 253.699219 82.070312 L 253.667969 82.007812 L 253.40625 81.707031 C 253.339844 81.628906 253.269531 81.550781 253.199219 81.46875 L 253.375 81.304688 C 253.390625 81.292969 253.402344 81.28125 253.414062 81.269531 L 256.808594 78.167969 C 256.957031 78.03125 257.085938 77.882812 257.203125 77.722656 C 257.492188 77.960938 257.769531 78.179688 258.019531 78.382812 L 258.117188 78.460938 L 258.246094 78.480469 C 259.617188 78.691406 260.785156 78.847656 262.261719 79.042969 L 263.605469 79.222656 C 264.800781 79.382812 266.074219 80.292969 266.84375 81.535156 C 267.535156 82.648438 267.765625 83.933594 267.507812 85.179688 Z M 267.507812 85.179688 " fill-opacity="1" fill-rule="nonzero"/></g><path fill="#ffffff" d="M 246.4375 71.0625 L 246.417969 71.125 C 246.390625 71.226562 246.347656 71.34375 246.292969 71.464844 C 246.277344 71.503906 246.257812 71.542969 246.238281 71.582031 C 245.851562 71.058594 244.480469 69.53125 241.03125 68.378906 C 236.800781 66.96875 234.046875 70.542969 238.160156 79.476562 C 240.679688 84.949219 239.867188 90.21875 238.859375 93.484375 C 237.121094 93.214844 235.691406 92.886719 235.003906 92.507812 L 237.21875 86.070312 L 232.390625 73.777344 L 232.363281 73.726562 L 232.351562 73.699219 C 232.316406 73.636719 231.976562 73.003906 232.113281 72.199219 C 232.207031 71.632812 232.515625 71.097656 233.023438 70.609375 L 233.03125 70.601562 C 233.039062 70.59375 233.050781 70.585938 233.058594 70.574219 L 239.535156 64.65625 C 240.003906 64.796875 240.644531 65.046875 241.253906 65.46875 C 241.695312 65.769531 242.347656 66.226562 243.363281 66.945312 C 243.652344 67.148438 243.941406 67.351562 244.210938 67.542969 C 244.902344 68.035156 245.472656 68.441406 245.664062 68.578125 L 245.703125 68.605469 C 245.863281 68.777344 246.765625 69.804688 246.4375 71.0625 Z M 246.4375 71.0625 " fill-opacity="0.8" fill-rule="nonzero"/><path fill="#ffffff" d="M 245.890625 61.34375 C 246.21875 61.710938 246.386719 62.183594 246.363281 62.675781 C 246.339844 63.167969 246.125 63.621094 245.765625 63.953125 L 245.117188 64.542969 C 243.875 63.390625 242.851562 62.566406 242.292969 62.136719 L 243.289062 61.222656 L 243.300781 61.214844 C 243.664062 60.882812 244.132812 60.714844 244.617188 60.738281 C 245.105469 60.765625 245.558594 60.980469 245.890625 61.34375 Z M 245.890625 61.34375 " fill-opacity="0.8" fill-rule="nonzero"/><path fill="#ffffff" d="M 249.414062 65.792969 C 249.742188 66.15625 249.910156 66.628906 249.886719 67.121094 C 249.863281 67.617188 249.648438 68.070312 249.289062 68.402344 L 249.039062 68.628906 C 248.195312 67.632812 247.347656 66.722656 246.546875 65.917969 L 246.820312 65.664062 C 247.1875 65.332031 247.65625 65.164062 248.144531 65.1875 C 248.632812 65.210938 249.085938 65.425781 249.414062 65.792969 Z M 249.414062 65.792969 " fill-opacity="0.8" fill-rule="nonzero"/><path fill="#ffffff" d="M 252.851562 70.320312 C 253.179688 70.683594 253.347656 71.15625 253.324219 71.648438 C 253.300781 72.144531 253.089844 72.597656 252.722656 72.929688 L 252.386719 73.238281 C 251.726562 72.15625 251.015625 71.132812 250.28125 70.175781 L 250.289062 70.164062 C 250.648438 69.851562 251.105469 69.691406 251.582031 69.714844 C 252.070312 69.738281 252.523438 69.953125 252.851562 70.320312 Z M 252.851562 70.320312 " fill-opacity="0.8" fill-rule="nonzero"/><path fill="#ffffff" d="M 256.761719 76.175781 C 256.738281 76.671875 256.523438 77.125 256.164062 77.457031 L 254.914062 78.597656 C 254.5 77.355469 253.980469 76.15625 253.382812 75.003906 L 253.695312 74.71875 C 254.035156 74.410156 254.472656 74.242188 254.929688 74.242188 C 255.445312 74.242188 255.941406 74.460938 256.289062 74.847656 C 256.617188 75.210938 256.785156 75.683594 256.761719 76.175781 Z M 256.761719 76.175781 " fill-opacity="0.8" fill-rule="nonzero"/><path fill="#ffffff" d="M 239.949219 60.582031 C 240.300781 61.054688 240.664062 61.523438 241.03125 61.984375 L 240.71875 62.265625 C 238.808594 61.992188 236.972656 61.375 236.914062 59.90625 C 236.851562 58.367188 236.496094 57.289062 236 56.535156 C 236.003906 56.257812 235.976562 55.964844 235.914062 55.65625 L 235.875 55.457031 L 232.578125 53.273438 C 232.984375 53.132812 233.5 52.988281 234.085938 52.925781 C 235.820312 52.726562 237.328125 53.261719 238.570312 54.511719 C 239.65625 55.605469 239.628906 56.523438 239.589844 57.691406 C 239.5625 58.492188 239.53125 59.398438 239.878906 60.441406 L 239.902344 60.519531 Z M 239.949219 60.582031 " fill-opacity="0.8" fill-rule="nonzero"/><path fill="#ffffff" d="M 245.011719 62.640625 C 244.988281 62.667969 244.949219 62.640625 244.898438 62.570312 C 245 62.585938 245.039062 62.609375 245.011719 62.640625 Z M 245.011719 62.640625 " fill-opacity="1" fill-rule="nonzero"/><path fill="#ffffff" d="M 267.507812 85.183594 L 263.3125 82.847656 C 260.617188 80.148438 255.976562 79.101562 255.824219 79.070312 L 256.808594 78.171875 C 256.957031 78.035156 257.085938 77.886719 257.203125 77.726562 C 257.496094 77.964844 257.769531 78.1875 258.019531 78.386719 L 258.117188 78.464844 L 258.246094 78.484375 C 259.617188 78.695312 260.785156 78.851562 262.261719 79.046875 L 263.605469 79.226562 C 264.804688 79.390625 266.074219 80.296875 266.84375 81.535156 C 267.535156 82.652344 267.765625 83.9375 267.507812 85.183594 Z M 267.507812 85.183594 " fill-opacity="0.8" fill-rule="nonzero"/><g transform="matrix(1, 0, 0, 1, 20, 19)"><g clip-path="url(#c50165a9b0)"><g fill="#0e0e97" fill-opacity="1"><g transform="translate(1.860312, 70.610499)"><g><path d="M 3.0625 -3.5625 L 3.0625 -31.1875 C 3.0625 -32.40625 3.46875 -33.425781 4.28125 -34.25 C 5.101562 -35.070312 6.128906 -35.484375 7.359375 -35.484375 L 28.5625 -35.484375 C 29.488281 -35.484375 30.273438 -35.164062 30.921875 -34.53125 C 31.578125 -33.894531 31.90625 -33.113281 31.90625 -32.1875 C 31.90625 -31.257812 31.578125 -30.457031 30.921875 -29.78125 C 30.273438 -29.113281 29.488281 -28.78125 28.5625 -28.78125 L 11.71875 -28.78125 L 11.71875 -21.140625 L 23.546875 -21.140625 C 24.472656 -21.140625 25.257812 -20.804688 25.90625 -20.140625 C 26.5625 -19.472656 26.890625 -18.671875 26.890625 -17.734375 C 26.890625 -16.804688 26.5625 -16.015625 25.90625 -15.359375 C 25.257812 -14.710938 24.472656 -14.390625 23.546875 -14.390625 L 11.71875 -14.390625 L 11.71875 -3.5625 C 11.71875 -2.34375 11.296875 -1.3125 10.453125 -0.46875 C 9.617188 0.363281 8.585938 0.78125 7.359375 0.78125 C 6.128906 0.78125 5.101562 0.363281 4.28125 -0.46875 C 3.46875 -1.3125 3.0625 -2.34375 3.0625 -3.5625 Z M 3.0625 -3.5625 "/></g></g></g><g fill="#0e0e97" fill-opacity="1"><g transform="translate(34.215971, 70.610499)"><g><path d="M 2.90625 -33.6875 C 2.90625 -34.800781 3.296875 -35.757812 4.078125 -36.5625 C 4.859375 -37.363281 5.804688 -37.765625 6.921875 -37.765625 C 8.035156 -37.765625 9.007812 -37.363281 9.84375 -36.5625 C 10.675781 -35.757812 11.09375 -34.800781 11.09375 -33.6875 C 11.09375 -32.570312 10.675781 -31.597656 9.84375 -30.765625 C 9.007812 -29.929688 8.035156 -29.515625 6.921875 -29.515625 C 5.804688 -29.515625 4.859375 -29.929688 4.078125 -30.765625 C 3.296875 -31.597656 2.90625 -32.570312 2.90625 -33.6875 Z M 3.015625 -3.234375 L 3.015625 -22.203125 C 3.015625 -23.273438 3.394531 -24.191406 4.15625 -24.953125 C 4.914062 -25.722656 5.835938 -26.109375 6.921875 -26.109375 C 7.992188 -26.109375 8.929688 -25.722656 9.734375 -24.953125 C 10.535156 -24.191406 10.9375 -23.273438 10.9375 -22.203125 L 10.9375 -3.234375 C 10.9375 -2.160156 10.535156 -1.222656 9.734375 -0.421875 C 8.929688 0.378906 7.992188 0.78125 6.921875 0.78125 C 5.835938 0.78125 4.914062 0.378906 4.15625 -0.421875 C 3.394531 -1.222656 3.015625 -2.160156 3.015625 -3.234375 Z M 3.015625 -3.234375 "/></g></g></g><g fill="#0e0e97" fill-opacity="1"><g transform="translate(48.050807, 70.610499)"><g><path d="M 13.046875 -16.40625 L 18.75 -24.71875 C 19.15625 -25.34375 19.609375 -25.726562 20.109375 -25.875 C 20.609375 -26.03125 21.117188 -26.109375 21.640625 -26.109375 C 22.722656 -26.109375 23.65625 -25.722656 24.4375 -24.953125 C 25.21875 -24.191406 25.609375 -23.273438 25.609375 -22.203125 C 25.609375 -21.710938 25.503906 -21.234375 25.296875 -20.765625 C 25.085938 -20.304688 24.816406 -19.875 24.484375 -19.46875 L 18.515625 -12.71875 L 24.546875 -5.859375 C 25.253906 -5.035156 25.609375 -4.125 25.609375 -3.125 C 25.609375 -2.082031 25.21875 -1.171875 24.4375 -0.390625 C 23.65625 0.390625 22.722656 0.78125 21.640625 0.78125 C 21.160156 0.78125 20.660156 0.695312 20.140625 0.53125 C 19.617188 0.363281 19.15625 -0.015625 18.75 -0.609375 L 13.046875 -8.921875 L 7.359375 -0.609375 C 6.992188 -0.015625 6.550781 0.363281 6.03125 0.53125 C 5.507812 0.695312 4.988281 0.78125 4.46875 0.78125 C 3.425781 0.78125 2.515625 0.375 1.734375 -0.4375 C 0.953125 -1.257812 0.5625 -2.191406 0.5625 -3.234375 C 0.5625 -4.316406 0.894531 -5.191406 1.5625 -5.859375 L 7.59375 -12.71875 L 1.5625 -19.46875 C 1.226562 -19.800781 0.976562 -20.21875 0.8125 -20.71875 C 0.644531 -21.21875 0.5625 -21.710938 0.5625 -22.203125 C 0.5625 -23.273438 0.953125 -24.191406 1.734375 -24.953125 C 2.515625 -25.722656 3.425781 -26.109375 4.46875 -26.109375 C 4.988281 -26.109375 5.507812 -26.03125 6.03125 -25.875 C 6.550781 -25.726562 6.992188 -25.34375 7.359375 -24.71875 Z M 13.046875 -16.40625 "/></g></g></g><g fill="#0e0e97" fill-opacity="1"><g transform="translate(74.0469, 70.610499)"><g><path d="M 3.0625 -3.5625 L 3.0625 -31.1875 C 3.0625 -32.40625 3.46875 -33.425781 4.28125 -34.25 C 5.101562 -35.070312 6.128906 -35.484375 7.359375 -35.484375 L 28.5625 -35.484375 C 29.488281 -35.484375 30.273438 -35.164062 30.921875 -34.53125 C 31.578125 -33.894531 31.90625 -33.113281 31.90625 -32.1875 C 31.90625 -31.257812 31.578125 -30.457031 30.921875 -29.78125 C 30.273438 -29.113281 29.488281 -28.78125 28.5625 -28.78125 L 11.71875 -28.78125 L 11.71875 -21.140625 L 23.546875 -21.140625 C 24.472656 -21.140625 25.257812 -20.804688 25.90625 -20.140625 C 26.5625 -19.472656 26.890625 -18.671875 26.890625 -17.734375 C 26.890625 -16.804688 26.5625 -16.015625 25.90625 -15.359375 C 25.257812 -14.710938 24.472656 -14.390625 23.546875 -14.390625 L 11.71875 -14.390625 L 11.71875 -3.5625 C 11.71875 -2.34375 11.296875 -1.3125 10.453125 -0.46875 C 9.617188 0.363281 8.585938 0.78125 7.359375 0.78125 C 6.128906 0.78125 5.101562 0.363281 4.28125 -0.46875 C 3.46875 -1.3125 3.0625 -2.34375 3.0625 -3.5625 Z M 3.0625 -3.5625 "/></g></g></g><g fill="#0e0e97" fill-opacity="1"><g transform="translate(106.402558, 70.610499)"><g><path d="M 3.0625 -3.234375 L 3.0625 -32.359375 C 3.0625 -33.429688 3.429688 -34.347656 4.171875 -35.109375 C 4.921875 -35.878906 5.835938 -36.265625 6.921875 -36.265625 C 7.992188 -36.265625 8.929688 -35.878906 9.734375 -35.109375 C 10.535156 -34.347656 10.9375 -33.429688 10.9375 -32.359375 L 10.9375 -3.234375 C 10.9375 -2.160156 10.535156 -1.222656 9.734375 -0.421875 C 8.929688 0.378906 7.992188 0.78125 6.921875 0.78125 C 5.835938 0.78125 4.921875 0.378906 4.171875 -0.421875 C 3.429688 -1.222656 3.0625 -2.160156 3.0625 -3.234375 Z M 3.0625 -3.234375 "/></g></g></g><g fill="#0e0e97" fill-opacity="1"><g transform="translate(120.237395, 70.610499)"><g><path d="M 15.234375 -20.1875 C 13.335938 -20.1875 11.957031 -19.460938 11.09375 -18.015625 C 10.238281 -16.566406 9.8125 -14.800781 9.8125 -12.71875 C 9.8125 -10.675781 10.238281 -8.898438 11.09375 -7.390625 C 11.957031 -5.878906 13.335938 -5.125 15.234375 -5.125 C 17.128906 -5.125 18.503906 -5.878906 19.359375 -7.390625 C 20.210938 -8.898438 20.640625 -10.675781 20.640625 -12.71875 C 20.640625 -14.800781 20.210938 -16.566406 19.359375 -18.015625 C 18.503906 -19.460938 17.128906 -20.1875 15.234375 -20.1875 Z M 15.234375 -26.109375 C 18.097656 -26.109375 20.515625 -25.503906 22.484375 -24.296875 C 24.453125 -23.085938 25.945312 -21.46875 26.96875 -19.4375 C 27.988281 -17.414062 28.5 -15.175781 28.5 -12.71875 C 28.5 -10.257812 27.988281 -8.007812 26.96875 -5.96875 C 25.945312 -3.925781 24.453125 -2.289062 22.484375 -1.0625 C 20.515625 0.164062 18.097656 0.78125 15.234375 0.78125 C 12.367188 0.78125 9.941406 0.164062 7.953125 -1.0625 C 5.960938 -2.289062 4.453125 -3.925781 3.421875 -5.96875 C 2.398438 -8.007812 1.890625 -10.257812 1.890625 -12.71875 C 1.890625 -15.175781 2.398438 -17.414062 3.421875 -19.4375 C 4.453125 -21.46875 5.960938 -23.085938 7.953125 -24.296875 C 9.941406 -25.503906 12.367188 -26.109375 15.234375 -26.109375 Z M 15.234375 -26.109375 "/></g></g></g><g fill="#0e0e97" fill-opacity="1"><g transform="translate(150.584783, 70.610499)"><g><path d="M 4.34375 -26.21875 C 5.09375 -26.21875 5.789062 -26.007812 6.4375 -25.59375 C 7.09375 -25.1875 7.585938 -24.648438 7.921875 -23.984375 L 13.609375 -9.59375 L 19.40625 -23.984375 C 19.738281 -24.648438 20.222656 -25.171875 20.859375 -25.546875 C 21.492188 -25.921875 22.164062 -26.109375 22.875 -26.109375 C 23.613281 -26.109375 24.289062 -25.921875 24.90625 -25.546875 C 25.519531 -25.171875 25.992188 -24.648438 26.328125 -23.984375 L 32.015625 -9.59375 L 37.8125 -23.984375 C 38.15625 -24.648438 38.640625 -25.171875 39.265625 -25.546875 C 39.898438 -25.921875 40.570312 -26.109375 41.28125 -26.109375 C 42.351562 -26.109375 43.28125 -25.742188 44.0625 -25.015625 C 44.84375 -24.296875 45.234375 -23.394531 45.234375 -22.3125 C 45.234375 -21.976562 45.175781 -21.632812 45.0625 -21.28125 C 44.957031 -20.925781 44.8125 -20.597656 44.625 -20.296875 L 35.53125 -1.34375 C 35.195312 -0.664062 34.710938 -0.144531 34.078125 0.21875 C 33.453125 0.59375 32.765625 0.78125 32.015625 0.78125 C 31.304688 0.78125 30.632812 0.59375 30 0.21875 C 29.375 -0.144531 28.894531 -0.664062 28.5625 -1.34375 L 22.875 -15.734375 L 17.0625 -1.34375 C 16.726562 -0.664062 16.253906 -0.144531 15.640625 0.21875 C 15.023438 0.59375 14.347656 0.78125 13.609375 0.78125 C 12.898438 0.78125 12.226562 0.59375 11.59375 0.21875 C 10.96875 -0.144531 10.488281 -0.664062 10.15625 -1.34375 L 1 -20.296875 C 0.707031 -20.859375 0.5625 -21.492188 0.5625 -22.203125 C 0.5625 -23.273438 0.929688 -24.210938 1.671875 -25.015625 C 2.421875 -25.816406 3.3125 -26.21875 4.34375 -26.21875 Z M 4.34375 -26.21875 "/></g></g></g></g></g></svg>